# xmcd CD database file
#
# Track frame offsets:
#	150
#	47937
#	93334
#	139084
#	174983
#	222153
#
# Disc length: 3698 seconds
#
# Revision: 2
# Processed by: cddbd v1.4PL0 Copyright (c) Steve Scherf et al.
# Submitted via: CDex 1.51
#
DISCID=4f0e7006
DTITLE=Roland Santè - music from heaven
DYEAR=2000
DGENRE=New Age
TTITLE0=Angels' Beauty
TTITLE1=The Message of Angels
TTITLE2=A Heavenly Song
TTITLE3=Revelation
TTITLE4=Comfort
TTITLE5=In the Paradise
EXTD=YEAR: 2000
EXTT0=
EXTT1=
EXTT2=
EXTT3=
EXTT4=
EXTT5=
PLAYORDER=
